<?xml version="1.0" standalone="no"?>
<!DOCTYPE svg PUBLIC "-//W3C//DTD SVG 20010904//EN"
 "http://www.w3.org/TR/2001/REC-SVG-20010904/DTD/svg10.dtd">
<svg version="1.0" xmlns="http://www.w3.org/2000/svg"
 width="1078.000000pt" height="1078.000000pt" viewBox="0 0 1078.000000 1078.000000"
 preserveAspectRatio="xMidYMid meet">
<metadata>
Created by potrace 1.14, written by Peter Selinger 2001-2017
</metadata>
<g transform="translate(0.000000,1078.000000) scale(0.100000,-0.100000)"
fill="#000000" stroke="none">
<path d="M1987 9563 c-84 -22 -87 -32 -87 -250 0 -233 6 -251 95 -282 l63 -23
71 -156 c66 -148 73 -170 117 -381 60 -290 123 -479 205 -617 58 -99 66 -107
153 -168 90 -62 94 -64 287 -115 188 -49 205 -52 459 -72 l263 -20 211 21
c116 11 294 36 396 56 l185 35 120 79 c165 110 212 164 314 367 98 196 165
354 227 536 36 107 58 153 95 205 l49 66 92 18 c89 17 97 17 190 1 l97 -18 47
-63 c34 -46 58 -97 91 -190 69 -200 129 -343 218 -527 108 -221 159 -282 329
-394 l121 -80 186 -36 c103 -19 280 -44 394 -55 l207 -21 268 21 c262 19 273
21 461 72 190 50 196 53 285 115 88 60 95 68 153 167 82 139 139 309 205 616
50 232 57 253 120 392 l68 146 63 23 c89 31 95 49 95 282 0 222 -2 228 -94
251 -58 14 -178 16 -1131 16 l-1066 0 -517 -94 c-284 -52 -557 -100 -605 -107
-109 -15 -106 -15 -779 107 l-516 94 -1074 -1 c-925 -1 -1081 -3 -1131 -16z"/>
<path d="M1482 7807 c-7 -501 -15 -1115 -19 -1362 l-6 -451 -213 -79 c-118
-44 -214 -83 -214 -88 0 -11 167 -192 254 -275 46 -43 102 -85 140 -104 62
-30 64 -33 70 -77 9 -68 108 -461 171 -681 208 -723 472 -1312 783 -1747 563
-786 1342 -1257 2777 -1679 183 -53 139 -56 420 27 1317 392 2086 852 2633
1575 317 421 583 984 798 1691 71 236 214 790 214 832 0 22 11 32 75 64 63 33
96 61 216 185 134 139 177 189 168 196 -2 2 -96 38 -209 80 -113 43 -208 80
-211 84 -4 4 -14 610 -23 1347 -10 737 -18 1349 -19 1360 -1 11 -28 -56 -61
-150 -337 -981 -680 -1615 -1093 -2018 l-59 -58 -1066 430 -1066 429 -75 -19
c-110 -28 -301 -59 -364 -59 -47 0 -59 -4 -84 -29 l-29 -29 -29 29 c-25 25
-37 29 -84 29 -63 0 -254 31 -363 59 l-74 19 -1066 -430 -1067 -430 -59 59
c-403 392 -735 997 -1063 1933 -48 134 -87 246 -89 247 -1 1 -8 -408 -14 -910z
m3958 -1914 c25 -42 81 -114 125 -160 44 -46 80 -83 80 -83 0 0 -57 -7 -127
-14 -117 -12 -217 -9 -377 13 -2 1 30 36 70 79 71 74 135 160 160 215 7 15 15
27 18 27 3 0 26 -35 51 -77z"/>
</g>
</svg>
